<?xml version="1.0" encoding="UTF-8" standalone="no"?>
<svg
   xmlns:dc="http://purl.org/dc/elements/1.1/"
   xmlns:cc="http://creativecommons.org/ns#"
   xmlns:rdf="http://www.w3.org/1999/02/22-rdf-syntax-ns#"
   xmlns:svg="http://www.w3.org/2000/svg"
   xmlns="http://www.w3.org/2000/svg"
   viewBox="0 0 616 146.66667"
   height="146.66667"
   width="616"
   xml:space="preserve"
   id="svg2"
   version="1.1"><metadata
     id="metadata8"><rdf:RDF><cc:Work
         rdf:about=""><dc:format>image/svg+xml</dc:format><dc:type
           rdf:resource="http://purl.org/dc/dcmitype/StillImage" /></cc:Work></rdf:RDF></metadata><defs
     id="defs6" /><g
     transform="matrix(1.3333333,0,0,-1.3333333,0,146.66667)"
     id="g10"><g
       transform="scale(0.1)"
       id="g12"><path
         id="path14"
         style="fill:#8dc641;fill-opacity:1;fill-rule:evenodd;stroke:none"
         d="m 3698.71,742.578 c 165.35,-54.488 269.81,-141.558 313.36,-261.098 23.24,-73.468 27.89,-142.929 13.79,-208.468 -13.79,-65.821 -30.59,-117.391 -50.27,-154.774 42.22,23.282 81.64,55.434 118.24,96.371 36.37,41.211 57.34,92.153 62.97,152.852 5.35,60.937 -17.03,132.699 -67.19,215.391 -75.27,125.16 -111.99,225.777 -110.2,301.796 1.76,76.051 17,130.942 45.71,164.762 28.4,34.03 44.65,50.79 48.75,50.28 -3.36,1.79 -32.89,-3.87 -88.71,-16.92 -55.82,-13.04 -117.11,-43.75 -183.95,-92.149 -66.8,-48.391 -118.36,-124.641 -154.73,-228.859 16.41,-6.602 33.79,-13.051 52.23,-19.184" /><path
         id="path16"
         style="fill:#3db54a;fill-opacity:1;fill-rule:evenodd;stroke:none"
         d="M 3373.87,494.922 C 3436.09,409.691 3498.4,340.98 3560.9,288.75 v 92.539 h -64.14 l 244.61,218.09 244.96,-218.09 h -64.14 V 100.59 c 7.15,-1.2892 10.74,-1.9181 10.74,-1.9181 2.85,2.0271 14.1,26.4881 33.79,73.3591 20,47.071 31.91,104.809 35.74,173.129 4.06,68.629 -16.41,136.211 -61.44,202.77 -45.04,66.519 -131.06,120.269 -258.05,161.25 -106.21,34.058 -185.94,72.3 -239.18,114.8 -53.01,42.5 -88.09,79.5 -105.24,110.981 -17.14,31.488 -24.96,48.008 -23.39,49.527 -74.77,-235.508 -105.63,-420.699 -92.54,-555.578 12.77,-134.93 51.44,-232.82 115.93,-293.75 64.5,-60.7108 136.8,-97.6991 216.92,-110.9803 80.15,-13.3203 150.04,-16.12892 209.69,-8.4414 59.37,7.6601 90.62,12.6601 93.67,14.9609 144.37,-25.57811 273.12,-28.89842 386.29,-10 113.12,19.2227 202.46,43.0117 268,71.4492 65.55,28.6716 98.95,44.5316 100.2,47.5816 C 4370.39,58.0898 4168.59,28.0508 4007.81,49.4883 3847.07,71.2891 3720.35,117.34 3627.7,187.73 c -92.93,70.668 -158.72,138.399 -197.35,203.168 -38.9,64.762 -57.77,99.411 -56.48,104.024" /><path
         id="path18"
         style="fill:#3db54a;fill-opacity:1;fill-rule:evenodd;stroke:none"
         d="m 3779.77,455.391 c -2.35,25.347 -16.18,39.179 -41.49,41.449 -25.35,-2.27 -39.18,-16.102 -41.48,-41.449 2.3,-25.352 16.13,-39.18 41.48,-41.481 25.31,2.301 39.14,16.129 41.49,41.481" /><path
         id="path20"
         style="fill:#3db54a;fill-opacity:1;fill-rule:evenodd;stroke:none"
         d="m 3686.41,207.73 c 1.05,-1.32 11.91,-8.71 32.65,-22.261 20.51,-13.59 44.3,-25.629 71.45,-36.129 v 171.64 h -104.1 V 207.73" /><path
         id="path22"
         style="fill:#8dc641;fill-opacity:1;fill-rule:nonzero;stroke:none"
         d="m 2058.71,642.07 v 60 c 10.82,-9.179 22.58,-16.05 35.31,-20.621 12.82,-4.5 25.67,-6.719 38.6,-6.719 7.69,0 14.37,0.661 20,2.032 5.7,1.328 10.47,3.199 14.22,5.617 3.82,2.5 6.71,5.351 8.59,8.601 1.87,3.321 2.81,6.95 2.81,10.93 0,5.199 -1.52,9.852 -4.53,13.91 -3.05,4.141 -7.15,7.969 -12.34,11.41 -5.12,3.508 -11.25,6.911 -18.44,10.149 -7.11,3.32 -14.77,6.641 -22.97,10 -21.05,8.75 -36.72,19.422 -47.03,32.031 -10.31,12.699 -15.47,27.969 -15.47,45.789 0,13.942 2.81,25.973 8.44,36.09 5.62,10.082 13.28,18.359 22.97,24.84 9.68,6.449 20.86,11.172 33.59,14.223 12.81,3.128 26.33,4.687 40.63,4.687 13.94,0 26.32,-0.859 37.18,-2.5 10.82,-1.68 20.78,-4.301 29.85,-7.809 v -56.101 c -4.5,3.133 -9.38,5.859 -14.69,8.281 -5.31,2.391 -10.78,4.379 -16.41,5.942 -5.62,1.558 -11.25,2.699 -16.87,3.437 -5.55,0.699 -10.78,1.09 -15.78,1.09 -6.88,0 -13.13,-0.699 -18.75,-2.027 -5.63,-1.25 -10.39,-3.082 -14.22,-5.473 -3.87,-2.301 -6.88,-5.109 -9.06,-8.43 -2.11,-3.359 -3.13,-7.109 -3.13,-11.25 0,-4.5 1.17,-8.519 3.59,-12.039 2.39,-3.551 5.79,-6.949 10.16,-10.148 4.38,-3.133 9.69,-6.25 15.94,-9.383 6.25,-3.039 13.28,-6.168 21.09,-9.367 10.82,-4.492 20.51,-9.301 29.06,-14.383 8.52,-5.109 15.86,-10.859 22.04,-17.18 6.13,-6.371 10.82,-13.679 14.06,-21.879 3.2,-8.121 4.84,-17.66 4.84,-28.59 0,-14.929 -2.89,-27.46 -8.59,-37.66 -5.63,-10.23 -13.36,-18.519 -23.13,-24.84 -9.68,-6.25 -21.05,-10.75 -34.06,-13.441 -12.93,-2.809 -26.56,-4.219 -40.94,-4.219 -14.68,0 -28.71,1.25 -42.03,3.75 -13.36,2.5 -24.84,6.25 -34.53,11.25 z m 367.27,-3.441 c -13.44,-7.688 -32.78,-11.559 -57.97,-11.559 -29.49,0 -53.4,8.91 -71.72,26.719 -18.24,17.891 -27.34,40.981 -27.34,69.223 0,32.578 9.76,58.277 29.37,77.027 19.57,18.832 45.7,28.281 78.44,28.281 22.58,0 38.98,-2.968 49.22,-8.91 v -50.308 c -12.43,9.257 -26.25,13.91 -41.57,13.91 -16.99,0 -30.46,-5 -40.46,-15 -9.93,-9.922 -14.85,-23.602 -14.85,-41.102 0,-16.988 4.73,-30.308 14.22,-40 9.57,-9.68 22.66,-14.531 39.22,-14.531 14.76,0 29.26,4.609 43.44,13.91 z" /><path
         id="path24"
         style="fill:#8dc641;fill-opacity:1;fill-rule:nonzero;stroke:none"
         d="m 2649.22,631.762 h -59.06 V 740.82 c 0,28.129 -10.28,42.192 -30.78,42.192 -10.55,0 -19.03,-3.992 -25.47,-11.883 -6.49,-7.809 -9.69,-17.77 -9.69,-29.84 V 631.762 H 2465 V 915.98 h 59.22 V 795.199 h 0.62 c 14.57,22.071 34.26,33.121 59.07,33.121 43.51,0 65.31,-26.211 65.31,-78.59 z" /><path
         id="path26"
         style="fill:#8dc641;fill-opacity:1;fill-rule:nonzero;stroke:none"
         d="m 2787.38,627.07 c -31.99,0 -57.15,8.95 -75.47,26.879 -18.36,17.891 -27.5,42.223 -27.5,72.961 0,31.762 9.46,56.61 28.44,74.539 19.06,17.891 44.77,26.871 77.19,26.871 31.87,0 56.87,-8.98 75,-26.871 18.12,-17.929 27.19,-41.648 27.19,-71.097 0,-31.872 -9.38,-57.114 -28.13,-75.622 -18.67,-18.441 -44.22,-27.66 -76.72,-27.66 z m 1.57,155.942 c -14.07,0 -25,-4.852 -32.82,-14.532 -7.73,-9.609 -11.56,-23.21 -11.56,-40.781 0,-36.879 14.88,-55.32 44.69,-55.32 28.32,0 42.5,18.949 42.5,56.883 0,35.816 -14.3,53.75 -42.81,53.75 z" /><path
         id="path28"
         style="fill:#8dc641;fill-opacity:1;fill-rule:nonzero;stroke:none"
         d="m 2930.74,631.762 h 59.2227 V 915.981 H 2930.74 Z" /><path
         id="path30"
         style="fill:#8dc641;fill-opacity:1;fill-rule:nonzero;stroke:none"
         d="m 3040.23,631.762 h 59.2188 V 915.981 H 3040.23 Z" /><path
         id="path32"
         style="fill:#3db54a;fill-opacity:1;fill-rule:nonzero;stroke:none"
         d="m 166.211,304.41 c -18.359,-10.621 -41.172,-15.93 -68.4415,-15.93 -30.3086,0 -54.2187,8.36 -71.7187,25.149 -17.42189,16.762 -26.0898625,39.851 -26.0898625,69.223 0,29.57 9.5273425,53.628 28.5898625,72.187 19.0703,18.633 44.418,27.973 76.0972,27.973 20,0 37.582,-2.742 52.813,-8.133 v -39.84 c -14.492,8.441 -32.262,12.66 -53.281,12.66 -17.6214,0 -31.9495,-5.75 -42.9691,-17.187 -11.0507,-11.371 -16.5625,-26.641 -16.5625,-45.782 0,-19.3 4.9219,-34.218 14.8399,-44.851 9.8906,-10.539 23.2812,-15.777 40.1601,-15.777 10.1916,0 18.2816,1.41 24.2226,4.218 v 36.719 H 86.2109 v 33.91 H 166.211 Z M 310.59,291.762 h -39.219 v 19.218 h -0.473 c -9.058,-15 -22.418,-22.5 -40,-22.5 -13.128,0 -23.437,3.668 -30.937,11.09 -7.422,7.379 -11.09,17.231 -11.09,29.532 0,26.128 15.391,41.168 46.25,45.16 l 36.559,4.84 c 0,14.687 -7.969,22.027 -23.91,22.027 -16.051,0 -31.25,-4.758 -45.622,-14.219 v 31.25 c 5.704,2.891 13.59,5.512 23.59,7.82 10,2.258 19.102,3.43 27.352,3.43 38.32,0 57.5,-19.14 57.5,-57.34 z m -38.91,54.527 v 9.063 l -24.379,-3.122 c -13.551,-1.8 -20.313,-7.89 -20.313,-18.281 0,-4.687 1.602,-8.558 4.852,-11.57 3.32,-3.039 7.808,-4.527 13.43,-4.527 7.82,0 14.14,2.66 19.07,7.968 4.879,5.391 7.34,12.231 7.34,20.469 z" /><path
         id="path34"
         style="fill:#3db54a;fill-opacity:1;fill-rule:nonzero;stroke:none"
         d="m 431.41,388.789 c -5,2.691 -10.859,4.063 -17.5,4.063 -8.988,0 -16.019,-3.364 -21.101,-10 -5.11,-6.563 -7.649,-15.551 -7.649,-26.872 v -64.218 h -41.41 v 134.367 h 41.41 v -25 h 0.461 c 6.57,18.211 18.359,27.351 35.469,27.351 4.379,0 7.82,-0.55 10.32,-1.57 z" /><path
         id="path36"
         style="fill:#3db54a;fill-opacity:1;fill-rule:nonzero;stroke:none"
         d="m 532.109,293.32 c -6.168,-3.199 -15.429,-4.84 -27.808,-4.84 -29.18,0 -43.75,15.149 -43.75,45.469 v 61.563 h -21.879 v 30.617 h 21.879 v 29.07 l 41.25,11.711 v -40.781 h 30.308 v -30.617 h -30.308 v -54.223 c 0,-14.059 5.539,-21.09 16.719,-21.09 4.371,0 8.902,1.281 13.589,3.903 z" /><path
         id="path38"
         style="fill:#3db54a;fill-opacity:1;fill-rule:nonzero;stroke:none"
         d="m 675.941,347.07 h -87.66 c 1.449,-19.492 13.75,-29.218 36.879,-29.218 14.762,0 27.809,3.476 39.059,10.468 v -29.84 c -12.418,-6.679 -28.559,-10 -48.438,-10 -21.679,0 -38.551,5.969 -50.621,17.969 -12,12.071 -17.969,28.903 -17.969,50.461 0,22.27 6.438,39.93 19.368,52.969 13.011,13.012 28.953,19.531 47.82,19.531 19.68,0 34.84,-5.859 45.461,-17.5 10.711,-11.558 16.101,-27.34 16.101,-47.34 z M 637.5,372.539 c 0,19.262 -7.77,28.91 -23.281,28.91 -6.68,0 -12.457,-2.777 -17.34,-8.289 -4.809,-5.539 -7.738,-12.422 -8.758,-20.621 z" /><path
         id="path40"
         style="fill:#3db54a;fill-opacity:1;fill-rule:nonzero;stroke:none"
         d="m 830.43,291.762 h -41.25 v 74.687 c 0,20.821 -7.461,31.25 -22.34,31.25 -7.192,0 -13.129,-2.777 -17.82,-8.289 -4.61,-5.539 -6.872,-12.57 -6.872,-21.09 v -76.558 h -41.41 v 134.367 h 41.41 v -21.25 h 0.473 c 9.879,16.332 24.289,24.531 43.277,24.531 29.692,0 44.532,-18.43 44.532,-55.308 z" /><path
         id="path42"
         style="fill:#3db54a;fill-opacity:1;fill-rule:nonzero;stroke:none"
         d="m 864.73,348.949 h 71.7188 v 29.0625 H 864.73 Z" /><path
         id="path44"
         style="fill:#3db54a;fill-opacity:1;fill-rule:nonzero;stroke:none"
         d="m 1173.83,291.762 h -41.41 v 20.468 h -0.62 c -10.24,-15.859 -23.91,-23.75 -41.1,-23.75 -31.17,0 -46.72,18.821 -46.72,56.559 v 81.09 h 41.41 v -77.5 c 0,-18.981 7.5,-28.43 22.5,-28.43 7.5,0 13.44,2.571 17.81,7.813 4.46,5.187 6.72,12.258 6.72,21.25 v 76.867 h 41.41 z" /><path
         id="path46"
         style="fill:#3db54a;fill-opacity:1;fill-rule:nonzero;stroke:none"
         d="m 1338.59,291.762 h -41.25 v 74.687 c 0,20.821 -7.46,31.25 -22.34,31.25 -7.19,0 -13.12,-2.777 -17.81,-8.289 -4.61,-5.539 -6.88,-12.57 -6.88,-21.09 v -76.558 h -41.4 v 134.367 h 41.4 v -21.25 h 0.47 c 9.88,16.332 24.3,24.531 43.28,24.531 29.69,0 44.53,-18.43 44.53,-55.308 z" /><path
         id="path48"
         style="fill:#3db54a;fill-opacity:1;fill-rule:nonzero;stroke:none"
         d="m 1503.05,291.762 h -41.41 v 18.437 h -0.62 c -9.38,-14.5 -23.25,-21.719 -41.57,-21.719 -16.79,0 -30.31,5.93 -40.62,17.809 -10.24,11.871 -15.31,28.441 -15.31,49.691 0,22.18 5.62,39.918 16.87,53.282 11.33,13.437 26.17,20.148 44.53,20.148 17.27,0 29.3,-6.211 36.1,-18.59 h 0.62 v 79.84 h 41.41 z m -40.63,65.308 v 10.16 c 0,8.75 -2.58,15.969 -7.65,21.719 -5.12,5.821 -11.72,8.75 -19.85,8.75 -9.18,0 -16.37,-3.679 -21.56,-10.937 -5.12,-7.192 -7.66,-17.114 -7.66,-29.692 0,-11.8 2.5,-20.898 7.5,-27.34 5,-6.371 11.92,-9.531 20.78,-9.531 8.32,0 15.16,3.352 20.47,10.153 5.32,6.757 7.97,15.668 7.97,26.718 z" /><path
         id="path50"
         style="fill:#3db54a;fill-opacity:1;fill-rule:nonzero;stroke:none"
         d="m 1616.13,291.762 v 188.117 h 66.57 c 66.87,0 100.31,-30.578 100.31,-91.719 0,-29.289 -9.14,-52.648 -27.35,-70.148 -18.24,-17.5 -42.57,-26.25 -72.96,-26.25 z m 42.35,153.59 V 326.129 h 20.93 c 18.44,0 32.86,5.512 43.29,16.57 10.39,11.012 15.62,26.012 15.62,45 0,17.891 -5.23,31.949 -15.62,42.18 -10.32,10.32 -24.81,15.473 -43.44,15.473 z" /><path
         id="path52"
         style="fill:#3db54a;fill-opacity:1;fill-rule:nonzero;stroke:none"
         d="m 1922.23,291.762 h -39.22 v 19.218 h -0.47 c -9.06,-15 -22.42,-22.5 -40,-22.5 -13.13,0 -23.44,3.668 -30.94,11.09 -7.42,7.379 -11.09,17.231 -11.09,29.532 0,26.128 15.39,41.168 46.25,45.16 l 36.56,4.84 c 0,14.687 -7.97,22.027 -23.91,22.027 -16.05,0 -31.25,-4.758 -45.62,-14.219 v 31.25 c 5.7,2.891 13.59,5.512 23.59,7.82 10,2.258 19.1,3.43 27.35,3.43 38.32,0 57.5,-19.14 57.5,-57.34 z m -38.91,54.527 v 9.063 l -24.37,-3.122 c -13.56,-1.8 -20.32,-7.89 -20.32,-18.281 0,-4.687 1.6,-8.558 4.85,-11.57 3.32,-3.039 7.81,-4.527 13.43,-4.527 7.82,0 14.14,2.66 19.07,7.968 4.88,5.391 7.34,12.231 7.34,20.469 z" /><path
         id="path54"
         style="fill:#3db54a;fill-opacity:1;fill-rule:nonzero;stroke:none"
         d="m 2057.11,296.602 c -9.3,-5.391 -22.77,-8.122 -40.47,-8.122 -20.62,0 -37.34,6.25 -50.16,18.75 -12.81,12.5 -19.21,28.629 -19.21,48.43 0,22.82 6.79,40.789 20.46,53.91 13.75,13.2 32.07,19.84 55,19.84 15.82,0 27.27,-2.109 34.38,-6.25 v -35.148 c -8.67,6.437 -18.28,9.687 -28.91,9.687 -11.87,0 -21.32,-3.519 -28.28,-10.469 -6.99,-7 -10.47,-16.57 -10.47,-28.75 0,-12 3.32,-21.371 10,-28.128 6.64,-6.801 15.78,-10.153 27.35,-10.153 10.39,0 20.5,3.199 30.31,9.68 z" /><path
         id="path56"
         style="fill:#3db54a;fill-opacity:1;fill-rule:nonzero;stroke:none"
         d="m 2213.44,291.762 h -41.25 v 76.398 c 0,19.692 -7.19,29.539 -21.57,29.539 -7.42,0 -13.39,-2.777 -17.96,-8.289 -4.5,-5.539 -6.72,-12.57 -6.72,-21.09 v -76.558 h -41.41 V 490.66 h 41.41 v -84.531 h 0.47 c 10.19,15.512 23.98,23.281 41.4,23.281 30.39,0 45.63,-18.39 45.63,-55.148 z" /><path
         id="path58"
         style="fill:#3db54a;fill-opacity:1;fill-rule:nonzero;stroke:none"
         d="m 2237.34,295.352 v 33.597 c 6.88,-4.179 13.68,-7.269 20.47,-9.219 6.76,-2 13.17,-2.968 19.22,-2.968 7.38,0 13.17,0.968 17.35,2.968 4.25,1.95 6.4,5.04 6.4,9.219 0,2.571 -1.01,4.723 -2.97,6.403 -1.87,1.757 -4.33,3.32 -7.34,4.687 -3.05,1.332 -6.37,2.539 -10,3.59 -3.56,1.019 -6.99,2.191 -10.31,3.441 -5.32,2.071 -10,4.258 -14.07,6.559 -4.06,2.269 -7.5,4.922 -10.31,7.973 -2.73,3.128 -4.8,6.636 -6.25,10.628 -1.48,4.059 -2.19,8.821 -2.19,14.372 0,7.5 1.61,13.949 4.85,19.378 3.32,5.5 7.69,10 13.12,13.43 5.51,3.442 11.8,5.942 18.91,7.5 7.07,1.641 14.41,2.5 22.03,2.5 5.94,0 11.91,-0.461 17.97,-1.398 6.13,-0.942 12.19,-2.274 18.12,-3.91 V 392.07 c -5.23,3.008 -10.86,5.231 -16.87,6.719 -5.94,1.563 -11.8,2.34 -17.5,2.34 -2.74,0 -5.31,-0.27 -7.81,-0.777 -2.43,-0.43 -4.54,-1.09 -6.41,-2.032 -1.8,-0.859 -3.2,-1.992 -4.22,-3.441 -1.05,-1.481 -1.56,-3.117 -1.56,-5 0,-2.418 0.78,-4.488 2.34,-6.25 1.57,-1.789 3.6,-3.277 6.1,-4.527 2.57,-1.25 5.47,-2.422 8.59,-3.442 3.12,-1.051 6.17,-2.109 9.22,-3.121 5.51,-1.879 10.47,-3.988 14.84,-6.25 4.46,-2.309 8.32,-5 11.56,-8.129 3.21,-3.039 5.67,-6.64 7.35,-10.781 1.76,-4.059 2.65,-8.899 2.65,-14.527 0,-8.051 -1.79,-14.84 -5.31,-20.473 -3.43,-5.617 -8.04,-10.231 -13.75,-13.75 -5.74,-3.551 -12.34,-6.09 -19.84,-7.649 -7.42,-1.64 -15.16,-2.5 -23.28,-2.5 -14.81,0 -28.52,2.301 -41.1,6.872 z" /><path
         id="path60"
         style="fill:#3db54a;fill-opacity:1;fill-rule:nonzero;stroke:none"
         d="m 2484.96,347.07 h -87.66 c 1.45,-19.492 13.75,-29.218 36.88,-29.218 14.77,0 27.81,3.476 39.06,10.468 v -29.84 c -12.42,-6.679 -28.55,-10 -48.44,-10 -21.68,0 -38.55,5.969 -50.62,17.969 -11.99,12.071 -17.97,28.903 -17.97,50.461 0,22.27 6.45,39.93 19.38,52.969 13,13.012 28.94,19.531 47.81,19.531 19.69,0 34.84,-5.859 45.47,-17.5 10.7,-11.558 16.09,-27.34 16.09,-47.34 z m -38.44,25.469 c 0,19.262 -7.77,28.91 -23.28,28.91 -6.68,0 -12.46,-2.777 -17.34,-8.289 -4.81,-5.539 -7.74,-12.422 -8.75,-20.621 z" /><path
         id="path62"
         style="fill:#3db54a;fill-opacity:1;fill-rule:nonzero;stroke:none"
         d="m 2597.42,388.789 c -5,2.691 -10.86,4.063 -17.5,4.063 -8.98,0 -16.01,-3.364 -21.09,-10 -5.12,-6.563 -7.66,-15.551 -7.66,-26.872 v -64.218 h -41.4 v 134.367 h 41.4 v -25 h 0.47 c 6.56,18.211 18.36,27.351 35.47,27.351 4.37,0 7.81,-0.55 10.31,-1.57 z" /><path
         id="path64"
         style="fill:#3db54a;fill-opacity:1;fill-rule:nonzero;stroke:none"
         d="m 2744.84,426.129 -50,-134.367 h -47.34 l -47.66,134.367 h 44.38 l 23.44,-82.809 c 2.57,-9.371 4.1,-17.34 4.53,-23.91 h 0.47 c 0.62,6.25 2.26,13.949 5,23.129 l 23.75,83.59 z" /><path
         id="path66"
         style="fill:#3db54a;fill-opacity:1;fill-rule:nonzero;stroke:none"
         d="m 2783.75,447.379 c -6.99,0 -12.73,2.07 -17.19,6.25 -4.49,4.141 -6.72,9.262 -6.72,15.32 0,6.129 2.23,11.172 6.72,15.153 4.46,3.949 10.2,5.937 17.19,5.937 7.07,0 12.81,-1.988 17.19,-5.937 4.45,-3.981 6.72,-9.024 6.72,-15.153 0,-6.371 -2.27,-11.57 -6.72,-15.629 -4.38,-3.98 -10.12,-5.941 -17.19,-5.941 z m 20.47,-155.617 h -41.4102 v 134.367 h 41.4102 z" /><path
         id="path68"
         style="fill:#3db54a;fill-opacity:1;fill-rule:nonzero;stroke:none"
         d="m 2941.17,296.602 c -9.29,-5.391 -22.77,-8.122 -40.47,-8.122 -20.62,0 -37.34,6.25 -50.15,18.75 -12.82,12.5 -19.22,28.629 -19.22,48.43 0,22.82 6.79,40.789 20.47,53.91 13.75,13.2 32.07,19.84 55,19.84 15.82,0 27.26,-2.109 34.37,-6.25 v -35.148 c -8.67,6.437 -18.28,9.687 -28.9,9.687 -11.88,0 -21.33,-3.519 -28.29,-10.469 -6.99,-7 -10.46,-16.57 -10.46,-28.75 0,-12 3.32,-21.371 10,-28.128 6.64,-6.801 15.78,-10.153 27.34,-10.153 10.39,0 20.51,3.199 30.31,9.68 z" /><path
         id="path70"
         style="fill:#3db54a;fill-opacity:1;fill-rule:nonzero;stroke:none"
         d="m 3089.22,347.07 h -87.66 c 1.45,-19.492 13.75,-29.218 36.88,-29.218 14.76,0 27.81,3.476 39.06,10.468 v -29.84 c -12.42,-6.679 -28.55,-10 -48.44,-10 -21.68,0 -38.55,5.969 -50.62,17.969 -11.99,12.071 -17.97,28.903 -17.97,50.461 0,22.27 6.44,39.93 19.37,52.969 13.01,13.012 28.95,19.531 47.82,19.531 19.68,0 34.84,-5.859 45.46,-17.5 10.71,-11.558 16.1,-27.34 16.1,-47.34 z m -38.44,25.469 c 0,19.262 -7.77,28.91 -23.28,28.91 -6.68,0 -12.46,-2.777 -17.34,-8.289 -4.81,-5.539 -7.74,-12.422 -8.75,-20.621 z" /></g></g></svg>