<svg height="512" viewBox="0 0 512 512" width="512" xmlns="http://www.w3.org/2000/svg"><g id="Flat"><path d="m453.01 161.04a12.53485 12.53485 0 0 1 -7.59009 11.5l-19.77991 8.47a71.96131 71.96131 0 0 0 -37.18 36.38989l-18.36 40.37011a79.92515 79.92515 0 0 1 -30.9 35.03l-232.51 143.09009-28.96-26.19009 228.73-129.03a104.03132 104.03132 0 0 0 43.58-47.54988l10.86987-23.93018a96.00055 96.00055 0 0 1 48.41016-48l26.07997-11.58984a12.53683 12.53683 0 0 1 17.61 11.4399z" fill="#ad7d4d"/><path d="m340.2 74.45a158.17106 158.17106 0 0 1 -22.82995 53.49l1.72995 31.56.9 16.5h-56v-112a15.99931 15.99931 0 0 1 16-16 16.40045 16.40045 0 0 1 2.23.1499 16.00045 16.00045 0 1 1 29.77-8.1499 16 16 0 0 1 32 0 158.19716 158.19716 0 0 1 -3.8 34.45z" fill="#4ba477"/><path d="m320 176h-56v-112a15.94286 15.94286 0 0 1 4.99-11.60986 23.54488 23.54488 0 0 1 1.65 3.6499c.45008-.03.91-.04 1.36-.04a24.04944 24.04944 0 0 1 22.97 17.03 24.00607 24.00607 0 0 1 10.74 39.16996c.17.36011.3501.73.51 1.09009a148.51459 148.51459 0 0 1 12.88 46.20991 150.67486 150.67486 0 0 1 .9 16.5z" fill="#349966"/><path d="m312 176h-80v-111.55c0-8.61987 6.63-16.03 15.23-16.42993a15.99858 15.99858 0 0 1 16.77 15.97993 16.38112 16.38112 0 0 1 -.15 2.23 1.09221 1.09221 0 0 1 .15-.08008 15.8227 15.8227 0 0 1 8-2.14992 15.99548 15.99548 0 0 1 16 16 16.00281 16.00281 0 0 1 7.79 29.98l2.45 5.12988c.23.49024.47.98.68994 1.48a141.512 141.512 0 0 1 13.07006 59.41012z" fill="#4ba477"/><path d="m280.22 176h-48.22v-105.87012a24.02907 24.02907 0 0 1 6.64 9.91012c.45008-.03.91-.04 1.36-.04.56006 0 1.13.02 1.7.06006a24.047 24.047 0 0 1 22.24 22.24 25.14325 25.14325 0 0 1 .02 3.12988 23.93159 23.93159 0 0 1 8.99 39.56006z" fill="#349966"/><path d="m264 141.85986 8 34.14014h-40l-2.29507-2.86884a135.55771 135.55771 0 0 1 -29.70493-84.68224v-.00006c0-8.61784 6.62613-16.03048 15.23466-16.431a15.99656 15.99656 0 0 1 16.76534 15.98214 16.38112 16.38112 0 0 1 -.15 2.23 16.001 16.001 0 0 1 21.92 21.91992l.10333-.01379a16.25013 16.25013 0 0 1 18.03347 14.11464 16.00087 16.00087 0 0 1 -7.9068 15.60909z" fill="#4ba477"/><path d="m264.02588 194.501-13.5-12.667c-.062-.05859-.12354-.11816-.18359-.17773l-1.37256-1.37305a84.69226 84.69226 0 0 1 -24.96973-60.28322h16a68.79616 68.79616 0 0 0 20.28418 48.96973l1.2832 1.28418 13.40674 12.5791z" fill="#349966"/><path d="m317.37 127.93994 2.63 48.06006h-24.22l7.27-31.01a24.10861 24.10861 0 0 1 -6.91-19.58008 23.39036 23.39036 0 0 1 2.78992-8.82007 24.613 24.613 0 0 1 13.11008-11.15992 25.14325 25.14325 0 0 1 .02-3.12988 24.047 24.047 0 0 1 22.24-22.24c.57-.04005 1.13994-.06005 1.7-.06005.45 0 .90991.01 1.36.04a23.91812 23.91812 0 0 1 2.84-5.59 158.17106 158.17106 0 0 1 -22.83 53.48994z" fill="#349966"/><path d="m312 141.85986-8 34.14014h40l2.29507-2.86884a135.55771 135.55771 0 0 0 29.70493-84.68224v-.00006c0-8.61784-6.62613-16.03048-15.23466-16.431a15.99656 15.99656 0 0 0 -16.76534 15.98214 16.38112 16.38112 0 0 0 .15 2.23 16.001 16.001 0 0 0 -21.92 21.91992l-.10333-.01379a16.25013 16.25013 0 0 0 -18.03347 14.11464 16.00087 16.00087 0 0 0 7.9068 15.60909z" fill="#4ba477"/><path d="m313.65674 193.65723-11.31348-11.31446 13.37158-13.37207a68.79694 68.79694 0 0 0 20.28516-48.9707h16a84.69311 84.69311 0 0 1 -24.9707 60.28418z" fill="#349966"/><circle cx="104" cy="432" fill="#395166" r="56"/><path d="m104 496a64 64 0 1 1 64-64 64.07239 64.07239 0 0 1 -64 64zm0-112a48 48 0 1 0 48 48 48.05405 48.05405 0 0 0 -48-48z" fill="#2f4054"/><circle cx="104" cy="432" fill="#c4d4e0" r="32"/><path d="m320.5977 488a33.19531 33.19531 0 0 1 -26.55624-13.27812l-62.04146-82.72188 24-16 52.85845 75.51207a10.52176 10.52176 0 0 0 8.61977 4.48793 10.52177 10.52177 0 0 0 10.52178-10.52177v-101.47823h32l-6.25811 112.64605a33.19531 33.19531 0 0 1 -33.14419 31.35395z" fill="#ad7d4d"/><path d="m129.637 337.637 62.363 62.363 176-72-6.653-59.875z" fill="#e44b4d"/><path d="m64 256 287.5-53.561 24.5 61.561-264 80z" fill="#c4d4e0"/><path d="m104 272 232-40 8 16-216 64z" fill="#395166"/><path d="m156.34033 297.05371-8.68066-13.44141 15.95166-10.30175 6.13916-4.0918a31.93823 31.93823 0 0 0 14.24951-26.62598v-18.59277a32 32 0 0 0 -64 0v16h-16v-16a48 48 0 0 1 96 0v18.59277a47.905 47.905 0 0 1 -21.374 39.93848l-6.18848 4.125-.09717.06445z" fill="#379ec3"/><path d="m104 272v-40h64v68.148l-40 11.852z" fill="#8acce7"/><path d="m104 272-40-16 8-24 32 8z" fill="#379ec3"/><path d="m32 272 32-16 8-24-24-32-1.53694 1.53694a65.33443 65.33443 0 0 0 -14.46306 70.46306z" fill="#8acce7"/><path d="m344 200v48l-112 33.19v-81.19z" fill="#ad7d4d"/><g fill="#c4965c"><path d="m224 176h128v24h-128z"/><path d="m35.24882 469.62441a12.57654 12.57654 0 0 1 -5.6244-16.8732l.14081-.28161a12.5765 12.5765 0 0 1 6.92773-6.18652l278.42363-101.8623a115.70246 115.70246 0 0 0 65.09437-59.72992l22.86169-48.98935a48 48 0 0 1 43.49678-27.70151h29.43057a12 12 0 0 1 12 12 12 12 0 0 1 -12 12h-22.335a32 32 0 0 0 -29.71125 20.1155l-16.45814 41.14534a138.92324 138.92324 0 0 1 -83.22955 79.57656l-279.25053 97.413a12.57654 12.57654 0 0 1 -9.76671-.62599z"/></g></g></svg>